<svg xmlns="http://www.w3.org/2000/svg" xmlns:xlink="http://www.w3.org/1999/xlink" width="1206.886" height="286.555" viewBox="0 0 1206.886 286.555">
  <defs>
    <clipPath id="clip-path">
      <path id="Path_37" data-name="Path 37" d="M686.742,194.21c0,33.77-47.125,61.15-105.266,61.161S476.21,228.023,476.21,194.253,514.8.192,572.927.181c14.886,0,128.126-4.1,179.7,26.582,48.826,29.017,36.035,92.124,51.038,118.025,21.1,36.365-87.19,56.354-87.19,56.354S686.742,188.7,686.742,194.21Z" transform="translate(-476.21 0.002)" fill="none"/>
    </clipPath>
  </defs>
  <g id="Group_6" data-name="Group 6" transform="translate(-37 -524)">
    <path id="Path_1" data-name="Path 1" d="M679.216,142.006c-24.137-13.929-58.2-19.139-92.039-16.045,25.785.436,51.261,6.295,70.847,17.6,41.022,23.69,40.66,62.3-.808,86.233s-108.339,24.158-149.361.468c-21.553-12.44-31.675-29.007-30.421-45.392-8.921,21.266-.6,43.457,25.849,58.715,39.767,22.967,106.51,22.329,154.73-.4l59.746,22.659L679.567,230.6C717.845,202.816,718.664,164.761,679.216,142.006Z" transform="translate(67 531.92)" fill="#c82128"/>
    <path id="Path_2" data-name="Path 2" d="M496.952,249.387c-48.688-28.113-44.839-75.908,8.6-106.765s136.24-33.079,184.917-4.966c12.908,7.443,22.116,16.279,27.645,25.806-3.849-10.994-12.036-21.34-24.647-30.155L739.415,95.55l-65.541,26.9c-47.848-20.809-118.716-18.076-170.424,6.858L443.99,107.8l38.087,33.951c-42.914,29.942-47.412,70.922-11.037,98.418L424,278.34l65.616-27.071c15.237,7.22,33.079,11.92,52.038,14.131C525.14,262.147,509.85,256.83,496.952,249.387Z" transform="translate(63.836 530.049)"/>
    <text id="NEWS" transform="translate(37 777.555)" fill="#c82128" font-size="132" font-family="Montserrat-Bold, Montserrat" font-weight="700"><tspan x="0" y="0">N</tspan><tspan y="0" letter-spacing="-0.01em">EW</tspan><tspan y="0">S</tspan></text>
    <text id="ROOM" transform="translate(807.886 766.049)" fill="#c82128" font-size="129" font-family="Montserrat-Bold, Montserrat" font-weight="700"><tspan x="0" y="0">ROOM</tspan></text>
    <g id="Group_1" data-name="Group 1" transform="translate(543.35 524)" clip-path="url(#clip-path)">
      <path id="Path_3" data-name="Path 3" d="M675.248,170.525c4.817,12.759,15.651,18.863,30.612,18.352,11.069-.383,20.032-7.241,23.679-18.012-1.893,1.148-3.8,2.5-5.869,3.5s-4.115,1.552-7.571,2.818c-3.488-1.414-33.621-37.662-37.662-27.922C672.057,163.082,675.248,170.525,675.248,170.525Z" transform="translate(-463.663 9.344)" fill="#fff"/>
      <path id="Path_4" data-name="Path 4" d="M721.2,148.413c7.443,13.823,20.777,20.394,32.962,20.2,14.886-1.063,24.7-13.706,26.582-24.456C757.947,153.272,734.214,153.3,721.2,148.413Z" transform="translate(-460.704 9.126)" fill="#fff"/>
      <path id="Path_5" data-name="Path 5" d="M537.271,297.571l16.757,12.5L576.5,286.289l-.617-.7-11.7,8.591c-3.658,2.658-7.124,2.509-10.633-.5-5.061-4.413-10.122-8.836-15.386-13-2.5-1.988-3.19-3.839-1.52-6.667,1.776-3.03,3.307-6.21,5.412-10.186l12.313,15.131c.223.276.425.564.638.84,7.922,10.75,8.24,10.686,19.309.978-.245-.181-.542-.553-.713-.5-8.432,2.648-8.113,2.488-12.366-5.625-3.838-7.326-7.868-14.705-12.951-21.181-4.391-5.6-5.316-10.335-.7-15.949,4.253,8.719,8.655,17.512,13,26.3l1.627-.617c-8.974-22.542-18.969-44.818-18.15-70.975,4.806,10.346,9.7,19.5,13.355,29.134,3.8,9.974,10.505,13.387,20.8,14.705,11.622,1.478,21.127-1.063,30.155-7.932l-25.7,28.06-26.4-24.456-.755.521,28.8,41.383,37.672-34.217a135.725,135.725,0,0,1-6.327,38.459c-9.655,29.772-26.816,54.664-48.518,76.812a199.9,199.9,0,0,0-16.673,19.139c-2.446,3.19-3.817,7.5-4.838,11.505-2.371,9.357-4.253,18.831-6.89,28.135.723-14.4-1.84-29,8.219-42.106,16.438-21.425,31.718-43.744,47.55-65.648,11.59-16.045,17.991-34.206,22.552-54.419a918.121,918.121,0,0,1-83.479,104.968C529.5,345.781,531.306,318.135,537.271,297.571Z" transform="translate(-472.718 12.168)" fill="#fff"/>
      <path id="Path_6" data-name="Path 6" d="M537.229,185.28c2.626,11.7,6.539,22.744,7.167,34.025.447,8.049-3.254,16.428-5.614,24.52-1.223,4.2-4.253,7.443-2.871,12.759.9,3.509-2.414,7.943-3.19,12.079-1.446,7.571-3.849,15.333-3.36,22.85,1.765,26.944-3.817,53.08-6.762,79.556-1.563,14.089.468,28.571.681,42.883.17,11.016,0,22.042,0,34.025-9.208-37.141-18.236-73.527-27.465-110.774,8.783-1.361,16.162-11.08,25.455-1.478,2.041-6.1-1.691-17.64-6.731-20.649.723,7.56-4.934,7.2-9.57,7.985-3.775.638-7.592,1.063-10.9,1.467.393-9.963.393-19.458,1.3-28.879a42.117,42.117,0,0,1,3.945-13.908c4.413-9.229,9.952-17.927,14.163-27.241,2.424-5.316,2.828-11.59,4.71-17.247,5.465-16.5,11.207-32.909,16.906-49.337C535.464,186.96,536.421,186.269,537.229,185.28Z" transform="translate(-475.08 11.729)" fill="#fff"/>
      <path id="Path_7" data-name="Path 7" d="M577.736,169.894l30.559,28.06-.946,1.212-6.752-4.679c-9.091-6.38-17.916-13.11-27.358-18.895-7.7-4.721-14.078-10.442-18.65-18.267l-1.446.851c1.9,3.711,3.19,7.932,5.827,11.037C566.135,177.72,573.6,186,581.511,193.8c2.86,2.818,7.358,3.966,11.069,5.944,6.093,3.19,12.153,6.486,18.236,9.74l-.83,1.584C599.2,206.173,587.5,202.622,577.917,196c-8.357-5.774-14.323-15-21.34-22.712a10.028,10.028,0,0,0-3.541-2.775c.553,1.063,1.159,2.042,1.669,3.094,5.253,10.941,11.25,21.585,15.545,32.888,4.859,12.823,8.57,16.364,22.329,16.492h11.112c-10.133,4.189-20.054,4.827-29.1-.489-3.541-2.127-5.869-7.347-7.337-11.7-5.061-14.812-11.356-28.868-22-41.4l-6.624,12.855-1.063-.138c0-2.807-.627-5.795.117-8.379,1.978-6.773,5.231-13.217,6.731-20.054,1.9-8.73,2.595-17.725,3.934-27.454.84,5.518,1.18,10.495,2.477,15.205.936,3.381,2.509,7.071,4.944,9.453,4.519,4.423,9.825,8.049,14.886,11.9,7.241,5.5,8.666,5.263,15.216-2.765-6.167,5-9.442,0-13.2-3.083-13.355-11.026-13.334-11.048-14.886-29.209,12.462,5.423,23.392,14.961,39.661,13.685l-9.432-3.977c12.292-3.062,26.04-.521,32.6-14.812l1.35,1.776-19.022,25.03c6.38-2.254,14.3-3.317,18.384-11.983,1.191,26.327-.149,40.32-5.391,52.527-3.381-11.473-6.38-21.776-9.761-33.036-3.785,2.669-8.294,6.05-13.057,9.049-1.255.8-3.307.191-4.881.638C584.19,167.757,580.192,169.118,577.736,169.894ZM588.89,147.66c-7.347,4.253-11.484.989-15.556-3.19-3.594-3.668-7.518-7.028-11.3-10.527.659,4.083,1.287,8.24,3.562,11.09a48.973,48.973,0,0,0,12.866,11.8c1.255.744,5.912-4.253,8.985-6.688A14.741,14.741,0,0,0,588.89,147.66Z" transform="translate(-472.342 7.763)" fill="#fff"/>
      <path id="Path_8" data-name="Path 8" d="M632.106,370.3c1.584,9.261,3.19,18.788,4.859,28.315a53.268,53.268,0,0,0,1.3,6.752c4.009,13.036-2.127,24.275-6.5,35.684-4.923,12.855-10.516,25.455-15.843,38.151-.447,1.063-1.063,2.031-1.754,3.3l-8.581-20.011-1.669.138c-.968,22.18-6.38,43.255-14.993,65.063,2.244-20.66,4.328-39.8,6.38-58.938l-1.393-.319q-6.8,14.323-13.631,28.709l-.351-.287c9.719-30.623,19.437-61.235,29.4-92.645,2.509,17.767,4.934,34.9,7.347,52.016l.872.192Q624.854,413.4,632.106,370.3Z" transform="translate(-469.645 23.439)" fill="#fff"/>
      <path id="Path_9" data-name="Path 9" d="M546.441,125.23c1.5,9.453,2.126,17.98-4.668,24.6-12.1,11.7-15.3,27.093-17.789,42.649-1.319,8.3-2.627,16.343-8.028,23.159-5.093,6.444-6.8,13.631-7.347,22.021a90.667,90.667,0,0,1-6.912,28.549c-7.347,17.481-13.823,35.535-25.859,50.655l-1.552-.138c.213-3.19-.755-7.3.84-9.569,13.036-18.512,18.82-39.586,23.562-61.288,1.765-8.113,6.04-15.652,8.879-23.552,3.86-10.782,7.156-21.776,11.218-32.473,3.562-9.378,3.328-19,3.392-28.709a81.021,81.021,0,0,1,1.063-13.716C525.515,134.98,534.9,129.717,546.441,125.23Z" transform="translate(-476.338 7.928)" fill="#fff"/>
      <path id="Path_10" data-name="Path 10" d="M546.33,483.408l20.458-56.939.744.17q-1.69,7.911-3.4,15.811l1.361.457c24.328-52.218,45.371-105.691,61.033-161.238C614.966,354.92,585.565,421.142,546.33,483.408Z" transform="translate(-471.772 17.83)" fill="#fff"/>
      <path id="Path_11" data-name="Path 11" d="M579.359,26.774c-4.03,13.451-2.509,15.439-25.678,18.395l5.083,2.456c-1.414,2.8-2.52,5.742-4.317,8.166-.8,1.063-2.988,1.138-4.551,1.659a42.265,42.265,0,0,1-.436-4.615,6.976,6.976,0,0,1,.808-2.244l-4.253-.223c.149-1.457-.181-3.19.532-4.253,2.126-3.19,4.636-6.008,6.55-9.453L545.833,42.7l-1.063-1.063c4.136-4.328,8.506-8.506,12.388-13.015,7.507-8.7,11.622-10.824,24.371-9.984,4.9.33,9.708,2.265,14.556,3.456l-.361,1.786-5.965-.989,4.934,3.381,4.253,2.945-.234.606-4.583-.936-.766,1.2L607.43,41.714c.181-.734.159-.447,0-.213-2.541,5-5.157,6.125-11.494,4.253-7.315-2.2-12.962-6.38-15.046-14.248A26.775,26.775,0,0,0,579.359,26.774Z" transform="translate(-471.871 1.171)" fill="#fff"/>
      <path id="Path_12" data-name="Path 12" d="M623.288,140.681c-1.648-13.121,3.552-21.011,15.641-23a105.486,105.486,0,0,1,22.128-1.8c9.154.457,17.906-.234,26.582-3.094,2.775-.914,4.5-1.839,5.891-4.912,2.594-5.752,6.38-10.941,9.772-16.353,8.325-13.461,16.662-26.912,25.328-40.9.234.766,1.425,2.531,1,3.732-2.892,8.315-5.848,16.651-9.432,24.69-1.063,2.435-3.913,4.455-6.38,5.806-5.689,3.094-9.772,6.731-11.154,13.706-1.212,6.135-4.253,11.909-6.677,17.789a4.561,4.561,0,0,1-2.488,2.35c-14.961,4.774-29.9,9.378-46,8.411-8.506-.5-15.088,4.253-20.862,10.027C625.531,138.214,624.511,139.394,623.288,140.681Z" transform="translate(-466.92 3.206)" fill="#fff"/>
      <path id="Path_13" data-name="Path 13" d="M552,119.722c9.485-4.019,13.961-9.506,13.823-18.2,0-.617,2.35-1.5,3.721-1.818.543-.117,1.383.946,2.063,1.5,8.24,6.614,8.644,6.624,17.534-.638-2.329,5.763-4.189,10.388-6.05,15.014l1.265.787,4.572-5.55c2.063,4.7.351,9.134-6.029,10.633-4.125.957-8.963-1.063-13.514-1.8,2.488,2.818,4.572,6.093,7.517,8.155,1.616,1.138,4.923.946,7.007.138a152.937,152.937,0,0,0,16.013-7.443c1.4-.744,2.233-2.573,3.785-4.445L619.9,118.1c-4.487,2.765-7.9,5.582-11.834,7.145-8.815,3.52-17.874,6.454-26.88,9.5a5.667,5.667,0,0,1-4.051.064C569.151,130.164,561.282,125.336,552,119.722Z" transform="translate(-471.413 6.312)" fill="#fff"/>
      <path id="Path_14" data-name="Path 14" d="M709.82,118.1l13.823,39.267-32.133-1.988c1.063-8.357,2.041-17.087,3.424-25.742.234-1.51,1.956-3.062,3.36-4.072C701.994,122.949,705.854,120.62,709.82,118.1Z" transform="translate(-462.583 7.477)" fill="#fff"/>
      <path id="Path_15" data-name="Path 15" d="M748.446,80.83l19.979,59.4-10.995,2.127-12.94-3.743c.978-18.7,2.009-38.183,3.03-57.652Z" transform="translate(-459.23 5.118)" fill="#fff"/>
      <path id="Path_16" data-name="Path 16" d="M538.78,445.69c5.061-24.317,10.091-48.656,15.269-72.952a10.634,10.634,0,0,1,2.913-4.8c5.317-5.412,10.782-10.633,17.1-16.832-.936,2.222-1.372,3.53-2.01,4.721-9.41,17.64-12.845,37.215-18.6,56.089-3.573,11.7-8.41,23.052-12.685,34.568Z" transform="translate(-472.25 22.224)" fill="#fff"/>
      <path id="Path_17" data-name="Path 17" d="M582.216,71.35l-7.528,1.063c5.04,4.1,10.941,2.818,13.057-2.446,4.753.128,6.38,2.807,6.061,7.252-.691,10.3-3.041,12.5-14.631,13.493,0,.308-.138.712,0,.914,1.2,1.669,2.456,3.3,3.7,4.934-2.126.553-4.147,1.521-6.241,1.595-8.687.34-17.513-14.588-17.874-21.84a4.008,4.008,0,0,1,1.7-2.945c6.688-4.253,14.014-4.593,21.489-3.966Zm-13.77,11.462h19.841C582.057,76.858,575.879,77.815,568.447,82.813Z" transform="translate(-470.985 4.379)" fill="#fff"/>
      <path id="Path_18" data-name="Path 18" d="M595.256,65.506l7.656,1.68c.234.478.468.957.712,1.425-1.255.553-2.754,1.861-3.732,1.552-13.716-4.4-27.5-2.9-41.33-.978-1.765.245-3.636-.372-5.455-.585,1.467-1.2,2.9-2.446,4.423-3.573.521-.372,1.255-.457,1.808-1.212l-7.922.627-.276-1.372,13.206-3.19-8.634-.755c16.215-2.35,32.4-3.913,49.018,1.882l-4.508.84,4.817,2.594H595.15Z" transform="translate(-471.467 3.61)" fill="#fff"/>
      <path id="Path_19" data-name="Path 19" d="M730.23,141.568c4.934-18.246,9.634-35.652,14.344-53.058l.935.159c-1.063,16.12-2.127,32.25-3.413,48.359a3.988,3.988,0,0,1-2.4,2.711A94.3,94.3,0,0,1,730.23,141.568Z" transform="translate(-460.133 5.604)" fill="#fff"/>
      <path id="Path_20" data-name="Path 20" d="M564.6,462l-20.575,50.4-1.584-.276c-1.063-4.827-2.35-9.633-3.19-14.5a6.475,6.475,0,0,1,1.457-4.253C548.628,482.83,556.667,472.388,564.6,462Z" transform="translate(-472.22 29.243)" fill="#fff"/>
      <path id="Path_21" data-name="Path 21" d="M749.375,71.31c-4.774,8.847-37.406,22.669-47.635,20.6C717.062,83.208,730.906,73.862,749.375,71.31Z" transform="translate(-461.936 4.515)" fill="#fff"/>
      <path id="Path_22" data-name="Path 22" d="M591.5,52.644c-6.38,1.372-11.441,3.509-16.332,3.19s-9.8-2.956-14.758-4.6c-.1-3.4,1.606-4.583,5.178-5.476,4.37-1.063,8.336-3.849,12.26-5.784Z" transform="translate(-470.881 2.532)" fill="#fff"/>
      <path id="Path_23" data-name="Path 23" d="M552.579,85.654l-4.5,6.167-1.361-.532c1.531-6.252,3.073-12.5,4.7-19.139,11.005,14.291,13.068,28.709,6.135,37l-.967-16.821h-.968q-.479,3.807-.968,7.645h-1.063V85.813Z" transform="translate(-471.747 4.569)" fill="#fff"/>
      <path id="Path_24" data-name="Path 24" d="M693.4,126.41c-1.233,9.974-2.35,17.959-3.19,25.966-.606,5.912-5.519,3.828-9.921,6.157,2.807-10.069,5.093-18.82,7.815-27.444C688.615,129.536,690.9,128.558,693.4,126.41Z" transform="translate(-463.293 8.003)" fill="#fff"/>
      <path id="Path_25" data-name="Path 25" d="M601.083,83.383q-2.818,9.431-5.625,18.842l1.478.978c.574-1.467,1.149-2.935,1.712-4.4l1.244,1c-.234,2.594-.479,5.189-.713,7.783l1.957.872c1.744-2.775,3.488-5.55,5.146-8.166a54.37,54.37,0,0,1-.128,8.6c-.277,1.7-1.531,4.126-2.86,4.54s-3.6-.957-4.934-2.127c-4.062-3.636-5.774-15.949-3.083-20.926,1.393-2.584,3.009-5.04,4.519-7.549Z" transform="translate(-468.756 5.245)" fill="#fff"/>
      <path id="Path_26" data-name="Path 26" d="M631.117,464.893q-2.446,28.9-4.87,57.811l-1.063.394c-.362-1.393-1.063-2.807-1.063-4.168.787-11.26,1.786-22.5,2.616-33.759.33-4.562.085-9.187.7-13.706.319-2.3,1.946-4.423,2.988-6.624Z" transform="translate(-466.849 29.423)" fill="#fff"/>
      <path id="Path_27" data-name="Path 27" d="M470.58,326.473l40.405-8.953.457,2.052-40.405,8.8Z" transform="translate(-476.566 20.098)" fill="#fff"/>
      <path id="Path_28" data-name="Path 28" d="M728.458,44.866c-.426-4.8-.861-9.57-1.308-14.546C731.5,32.021,732,35.945,728.458,44.866Z" transform="translate(-460.328 1.921)" fill="#fff"/>
      <path id="Path_29" data-name="Path 29" d="M701.154,96.35c4.136,8.347,4.051,8.8-2.594,13.823.5-2.807.851-4.849,1.233-6.89S700.612,99.168,701.154,96.35Z" transform="translate(-462.137 6.1)" fill="#fff"/>
      <path id="Path_30" data-name="Path 30" d="M549.363,108.6c.128,2.127.287,3.541.277,4.934a40.366,40.366,0,0,1-.542,4.136l-7.858-3.807Z" transform="translate(-472.094 6.876)" fill="#fff"/>
      <path id="Path_31" data-name="Path 31" d="M734.3,48.079l4.051-12.249C741.264,39.668,739.51,45.889,734.3,48.079Z" transform="translate(-459.875 2.27)" fill="#fff"/>
      <path id="Path_32" data-name="Path 32" d="M342.4,609.887H479.938V564.6h20.468V551.384H549.8c-14.057-17.449-15.5-38.47-20.894-58.024-8.666-31.495-16.63-63.181-24.711-94.835-.606-2.361.17-5.083.308-7.634l1.563-.627c.968,1.286,2.435,2.435,2.828,3.87q12.579,46.53,24.955,93.1c3.679,13.823,7.028,27.731,10.9,41.468,1.361,4.859,3.807,9.4,5.763,14.089l1.754-.564c-4.625-17.321-9.261-34.631-14-52.388l3.062-2.127c-1.7-.712-4.647-1.18-4.806-2.127-2.244-13.27-7.709-25.625-10.527-38.746-2.956-13.823-6.741-27.433-10.282-41.107-3.5-13.493-7.135-26.954-10.718-40.405a19.93,19.93,0,0,0-2.126-5.476c-1.85,10.122,3.87,19.139,4.413,28.975l-5.391,1.446c-2.244-7.932-4.519-15.864-6.752-23.807-.425-1.531-.585-3.19-1.063-4.657-1.17-3.6-2.127-10.069-3.753-10.229-5.933-.606-12.132.585-18.076,1.754-1.382.266-2.254,3.1-4.157,5.944l-5.2-18.948c9.506,5.806,16.088-.564,23.807-1.116-2.19-3.977-4.147-7.3-5.912-10.75-3.626-7.092-3-13.823,1.329-20.564a13.642,13.642,0,0,0,1.574-8.187,54.231,54.231,0,0,0-3-13.376,15.11,15.11,0,0,0-5.38-6.582c-4.711-3.317-5.753-6.72-2.669-11.632,4.03-6.38,10.133-7.922,15.758-3.966,4.179,2.945,4.317,6.922,1.063,11.941a12.141,12.141,0,0,0-1.7,6.731c.085,2.967,1.063,5.9,1.68,8.836a12.631,12.631,0,0,0,.744,1.967l1.51.33c1.754-7.209,4.125-14.344,5.114-21.659,1.956-14.578,7.124-27.943,13.132-41.213,3.417-7.472,8.4-24,8.4-24s3.942-20.519,4.1-31.454c.3-22.01,8.751-38.544,28.645-48.688a16.168,16.168,0,0,0,1.776-1.127c.138-.085.2-.276.574-.829-3.849-4.647-1.223-8.506,2.244-12.1s4.253-6.656.361-10.356c-3.307-3.19-2.977-6.667-.968-10.633,4.551-8.91,6.38-18.448,4.37-28.3a95.2,95.2,0,0,0-4.806-15.5c-1.68-4.349-.425-7.262,2.722-10.346a33.338,33.338,0,0,0,6.38-8.708c3.317-6.614,8.836-10.633,15.641-11.42a107.022,107.022,0,0,1,24.679,0c8.6,1,14.886,6.125,17.693,14.769.532,1.616,1.446,3.679,2.786,4.36,7.443,3.817,6.188,10.186,6.444,16.938s-2.127,11.175-6.55,15.758c-1.893,1.956-2.552,6.327-1.925,9.2a34.245,34.245,0,0,0,5.444,11.919c3.434,4.934,4.147,9.708,2.658,15.482-3.083,11.941-2.733,11.7,9.229,11.026,16.013-.925,32.069-.914,48.1-1.51,9.921-.361,19.139-1.9,24.552-12.2,4.87-9.187,10.878-17.778,16.343-26.657a83.673,83.673,0,0,0,11.345-33.366c.468-3.562,2.126-7.028,3.636-10.388,2.127-4.668,6.56-5.125,10.633-4.423,6.1,1.063,12.876,3.371,13.153,10.442.149,3.987-3.264,9-6.518,11.994-3.945,3.636-5.657,7.634-6.911,12.526s-3.53,9.793-5.316,14.514c6.05-1.839,12.2-3.764,18.384-5.572,4.083-1.2,6.082-.074,7.518,4.551,6.975,22.414,14.5,44.658,21.936,66.987a9.082,9.082,0,0,0,2.8,3.647c4.753,4.136,4.6,8.262-1.531,10.123-7.443,2.265-15.492,3.945-23.254,3.881-7.443-.064-15.141-2.063-22.329-4.37-6.72-2.127-6.805-4.806-1.755-9.57a7.211,7.211,0,0,0,1.691-3.19q8.389-29.283,16.662-58.587a15.547,15.547,0,0,0,.3-2.031c-8.612,4.051-17.013,7.943-25.4,12.058a7.337,7.337,0,0,0-3.339,3.6c-2.477,6.38-4.721,12.93-6.88,19.458a5.667,5.667,0,0,0,.3,3.488c4.8,12.887,9.814,25.689,14.461,38.619a32.3,32.3,0,0,1,2.19,11.7l-.117,2.828c-.128-.6-7.443,3.19-21.266,5.316-10.633,1.063-30.442-3.69-31.9-5.316-1.712-1.956-.649-4.009-.064-6.2,2.818-10.516,6.38-20.83,9.687-31.08-.553-.468-.84-.893-1.063-.851-13.248,2.828-26.582,5.508-39.714,8.634-8.262,1.967-14.631,7.071-19.139,14.184-6.039,9.5-10.452,19.6-10.952,31.123-.5,11.749-1.584,23.488-1.9,35.248-.308,11.409,4.359,21.681,9.144,31.654,3,6.242,4.03,11.973,2.127,18.842-1.138,4.136,0,9,.542,13.483,2.435,21.213,3.753,42.617,10.8,63.064a30.1,30.1,0,0,1-.638,21.8,11.7,11.7,0,0,0-.192,6.114c2.68,14.588,5.635,29.124,8.177,43.733.649,3.743.978,7.932,0,11.494-3.328,11.792-4.125,23.85-5.316,35.939-2.424,24.264-5.561,48.454-8.357,72.687-.191,1.712,0,3.477,0,5.859h48.284v13.142h20.436v45.211H860.958v41.468h-6.475l-505.213.106c-2.3,0-4.593.074-6.89.117ZM431.962,628.4c-2.86-2.562-6.071-2.222-6.582.968s-.117,6.656-.117,9.984l1.956.191c.266-1.5.925-3.052.723-4.487-.489-3.53,1.063-5.593,4.126-6.826-1.616,5.1,3.4,5.316,6.231,7.624l-6.773,1.489c3.519,2.52,7.294,3.785,9.272-.159,2.509-5.008-3.062-4.934-6.21-6.943l6.38-1.669c-.2-.776-.393-1.552-.6-2.329C437.555,626.995,434.769,627.7,431.962,628.4Zm117.27-319.732c-5.965,20.564-7.772,48.21-3.732,58.694A918.114,918.114,0,0,0,628.98,262.392c-4.561,20.2-10.962,38.374-22.552,54.419-15.832,21.9-31.112,44.222-47.55,65.648-10.059,13.11-7.443,27.709-8.219,42.106,2.658-9.3,4.519-18.778,6.89-28.135,1.063-4.009,2.393-8.283,4.838-11.5a199.886,199.886,0,0,1,16.7-19.161c21.7-22.148,38.863-47.061,48.518-76.812a135.725,135.725,0,0,0,6.326-38.459l-37.672,34.217-28.869-41.4.755-.521,26.4,24.456,25.732-28.007c-9.027,6.9-18.533,9.41-30.155,7.932-10.293-1.318-17.013-4.732-20.8-14.705-3.658-9.633-8.506-18.788-13.355-29.134-.819,26.157,9.176,48.433,18.15,70.975l-1.627.617c-4.349-8.783-8.7-17.576-13-26.3-4.593,5.625-3.69,10.357.7,15.949,5.083,6.475,9.112,13.823,12.951,21.181,4.253,8.113,3.934,8.272,12.366,5.625.17,0,.468.319.712.5-11.069,9.708-11.388,9.772-19.309-.978-.213-.276-.415-.564-.638-.84l-12.239-15.131c-2.127,3.977-3.637,7.156-5.412,10.186-1.659,2.828-.978,4.678,1.521,6.667,5.316,4.168,10.324,8.591,15.386,13,3.456,3.009,6.922,3.19,10.633.5l11.7-8.591.617.7-22.467,23.786Zm-2.4-112.709c-.808.989-1.776,1.68-2.127,2.605C539,214.991,533.262,231.4,527.8,247.9c-1.882,5.657-2.286,11.888-4.71,17.247-4.253,9.314-9.75,18.012-14.163,27.242a42.116,42.116,0,0,0-3.987,13.929c-.9,9.421-.9,18.916-1.3,28.879,3.307-.436,7.124-.829,10.9-1.467,4.657-.787,10.314-.425,9.57-7.985,5.04,3.009,8.772,14.546,6.731,20.649-9.293-9.57-16.673.117-25.455,1.478,9.229,37.215,18.257,73.633,27.465,110.774,0-11.973.128-23,0-34.025-.213-14.312-2.244-28.794-.681-42.883,2.945-26.476,8.506-52.612,6.762-79.556-.489-7.517,1.914-15.279,3.36-22.85.8-4.136,4.115-8.57,3.19-12.079-1.372-5.38,1.648-8.6,2.871-12.759,2.361-8.092,6.061-16.47,5.614-24.52-.6-11.292-4.508-22.35-7.135-34.036Zm43.244-19.352c2.456-.776,6.454-2.127,10.516-3.275,1.574-.447,3.626.159,4.881-.638,4.763-3,9.272-6.38,13.057-9.049,3.328,11.26,6.38,21.564,9.761,33.036,5.242-12.207,6.582-26.2,5.391-52.527-4.083,8.666-12.047,9.729-18.384,11.983l19.022-25.03-1.35-1.776c-6.56,14.291-20.309,11.7-32.6,14.812l9.4,4.03c-16.311,1.276-27.2-8.262-39.661-13.685,1.531,18.161,1.51,18.182,14.886,29.209,3.753,3.094,7.028,8.081,13.2,3.084-6.55,8.028-7.975,8.262-15.216,2.765-5.061-3.849-10.367-7.443-14.886-11.9-2.435-2.382-4.009-6.071-4.944-9.453-1.3-4.71-1.638-9.687-2.478-15.205-1.34,9.729-2.031,18.725-3.934,27.454-1.5,6.837-4.753,13.281-6.731,20.054-.744,2.584-.117,5.572-.117,8.379l1.063.138,6.624-12.855c10.633,12.536,16.938,26.582,22,41.4,1.467,4.253,3.8,9.57,7.337,11.7,9.049,5.316,18.969,4.678,29.1.489H604.9c-13.749-.128-17.459-3.668-22.329-16.492-4.253-11.3-10.293-21.946-15.545-32.888-.51-1.063-1.063-2.063-1.669-3.094a10.027,10.027,0,0,1,3.541,2.775c7.018,7.709,12.983,16.938,21.34,22.712,9.57,6.624,21.266,10.176,32.069,15.067l.829-1.584c-6.082-3.254-12.143-6.518-18.235-9.74-3.711-1.978-8.209-3.126-11.069-5.944-7.911-7.794-15.375-16.088-22.542-24.583-2.626-3.1-3.923-7.326-5.827-11.037l1.446-.851c4.572,7.826,10.952,13.546,18.65,18.267,9.442,5.784,18.267,12.557,27.359,18.895l6.752,4.678.946-1.212Zm57.067,216.061q-7.284,43.138-14.556,86.127l-.872-.191c-2.414-17.119-4.838-34.249-7.347-52.016-9.963,31.41-19.681,62.022-29.4,92.645l.351.287q6.805-14.344,13.631-28.709l1.393.319c-2.127,19.139-4.168,38.279-6.38,58.938,8.645-21.808,14.025-42.883,14.992-65.063l1.669-.138,8.613,19.979c.681-1.265,1.308-2.243,1.755-3.3,5.316-12.7,10.92-25.3,15.843-38.151,4.37-11.409,10.505-22.648,6.5-35.684a53.309,53.309,0,0,1-1.3-6.752C650.384,411.487,648.757,401.917,647.141,392.667ZM554.783,132.086c-11.537,4.487-20.926,9.75-23.169,22.191a81.02,81.02,0,0,0-1.063,13.716c-.064,9.708.17,19.331-3.392,28.709-4.062,10.7-7.358,21.691-11.218,32.473-2.839,7.9-7.113,15.439-8.878,23.552-4.742,21.7-10.527,42.776-23.563,61.288-1.595,2.265-.627,6.38-.84,9.57l1.552.138c12.026-15.12,18.512-33.175,25.859-50.655a90.662,90.662,0,0,0,6.911-28.549c.543-8.389,2.254-15.577,7.347-22.021,5.4-6.816,6.709-14.886,8.028-23.158,2.488-15.556,5.689-30.9,17.789-42.649C556.92,150.066,556.282,141.538,554.783,132.086Zm4.455,368.08c39.236-62.266,68.636-128.488,80.194-201.738-15.684,55.546-36.7,109.019-61.033,161.238l-1.361-.457q1.7-7.911,3.4-15.811l-.744-.17ZM592.2,26.873c.712,2,1.287,3.286,1.648,4.636,2.052,7.826,7.7,12.079,15.014,14.206,6.38,1.914,8.953.787,11.494-4.253.117-.234.138-.521,0,.213l-14.11-11.537.766-1.2,4.583.936.234-.606-4.253-2.945-4.934-3.381,5.965.989.361-1.786c-4.849-1.191-9.655-3.126-14.557-3.456-12.759-.84-16.864,1.287-24.371,9.984-3.913,4.53-8.251,8.687-12.387,13.015l1.063,1.063,7.262-6.039c-1.914,3.445-4.434,6.305-6.55,9.453-.712,1.063-.383,2.839-.532,4.253l4.253.223a7,7,0,0,0-.808,2.244,42.388,42.388,0,0,0,.436,4.615c1.563-.521,3.754-.574,4.551-1.659,1.8-2.424,2.9-5.316,4.317-8.166l-5.083-2.456c23.095-2.9,21.574-4.891,25.6-18.342Zm48.911,115.9c1.223-1.287,2.243-2.435,3.328-3.52,5.774-5.816,12.4-10.527,20.862-10.027,16.1.968,31.037-3.636,46-8.411a4.562,4.562,0,0,0,2.488-2.35c2.4-5.88,5.465-11.7,6.677-17.789,1.382-6.975,5.466-10.633,11.154-13.706,2.5-1.35,5.316-3.371,6.38-5.806,3.583-8.038,6.539-16.375,9.431-24.69.425-1.2-.765-2.967-1-3.732-8.666,13.993-17.013,27.444-25.328,40.9-3.339,5.412-7.177,10.633-9.772,16.353-1.393,3.073-3.115,4-5.89,4.912-8.687,2.86-17.438,3.551-26.582,3.094a105.481,105.481,0,0,0-22.149,1.808c-12.111,1.988-17.31,9.9-15.662,23Zm-75.845-17.81c9.314,5.614,17.183,10.442,25.168,15.056a5.667,5.667,0,0,0,4.051-.064c9.006-3.041,18.076-5.976,26.88-9.5,3.934-1.563,7.347-4.381,11.835-7.145l-16.247-2.052c-1.552,1.871-2.382,3.7-3.785,4.445a152.927,152.927,0,0,1-16.013,7.443c-2.127.808-5.391,1-7.007-.138-2.945-2.063-5.029-5.316-7.518-8.155,4.551.712,9.389,2.754,13.514,1.8,6.38-1.489,8.092-5.923,6.029-10.633l-4.572,5.55-1.265-.787c1.861-4.625,3.721-9.251,6.05-15.014-8.889,7.262-9.293,7.252-17.534.638-.681-.553-1.52-1.616-2.063-1.5-1.372.319-3.732,1.2-3.721,1.818C579.2,115.456,574.72,120.943,565.267,124.962Zm166.682-.457c-3.934,2.52-7.826,4.849-11.5,7.443-1.4,1.01-3.126,2.563-3.36,4.072-1.382,8.655-2.35,17.385-3.424,25.742l32.1,1.978Zm41.979-39.629-.914.106c-1.063,19.469-2.052,38.948-3.03,57.652l12.94,3.743,10.994-2.127ZM551.211,466.842l1.988.8c4.253-11.515,9.112-22.85,12.685-34.568,5.752-18.852,9.187-38.449,18.6-56.089.638-1.191,1.063-2.5,2.01-4.721-6.316,6.188-11.792,11.42-17.1,16.832a10.632,10.632,0,0,0-2.913,4.8C561.3,418.186,556.272,442.525,551.211,466.842ZM595.869,74.657l-.255-1.946c-7.443-.627-14.8-.234-21.489,3.966a4.008,4.008,0,0,0-1.7,2.945c.362,7.252,9.187,22.18,17.874,21.84,2.127-.074,4.157-1.063,6.242-1.595-1.244-1.637-2.5-3.264-3.7-4.934-.149-.2,0-.606,0-.914,11.579-.989,13.929-3.19,14.62-13.493.3-4.445-1.308-7.124-6.061-7.252-2.127,5.316-8.017,6.55-13.057,2.446Zm12.6-6.614-.106-1.063h9.889l-4.817-2.616,4.508-.84c-16.619-5.795-32.8-4.253-49.018-1.882l8.634.734-13.206,3.19.277,1.414,7.921-.617c-.553.755-1.287.84-1.808,1.212-1.52,1.127-2.956,2.371-4.423,3.573,1.818.213,3.69.829,5.455.585,13.823-1.925,27.646-3.424,41.33.978.978.308,2.477-1,3.732-1.552-.245-.468-.479-.946-.712-1.425Zm146.309,78.035a94.291,94.291,0,0,0,9.464-1.829,3.987,3.987,0,0,0,2.4-2.711c1.244-16.109,2.307-32.239,3.413-48.359l-.936-.16c-4.711,17.427-9.41,34.833-14.344,53.08ZM577.059,490.171c-7.932,10.367-15.949,20.809-23.882,31.335a6.476,6.476,0,0,0-1.457,4.253c.829,4.87,2.127,9.676,3.19,14.5l1.584.276ZM772.12,74.753c-18.47,2.552-32.313,11.9-47.636,20.6C734.714,97.423,767.346,83.6,772.12,74.753ZM605.3,54.1,591.648,41.461c-3.924,1.935-7.89,4.689-12.26,5.784-3.573.893-5.317,2.127-5.178,5.476,4.955,1.648,9.782,4.317,14.758,4.6S598.9,55.476,605.3,54.1ZM412.579,628.4l-4.434-5.582c-3.9,4.966-3.9,4.966-6.72,0l-7.528,5.837a12.763,12.763,0,0,1-.074,3.658,21.821,21.821,0,0,1-1.989,4.455,30.363,30.363,0,0,1-1.776-4.253c-.489-1.914-.649-3.913-.957-5.869l-2.19.308c0,2.4.074,4.806,0,7.2-.17,4.136,1.925,5.561,5.859,5.582s4.689-2.127,4.4-5.465c-.149-1.648,0-3.317,0-4.987l1.521-.149c.3,2.244.478,4.5.914,6.72.638,3.254,1.808,3.764,5.157,2.669A58.377,58.377,0,0,1,402.839,632c-.117-.585,1.01-1.414,1.563-2.127.659.627,1.69,1.148,1.893,1.9.362,1.329-.053,2.871.33,4.189.829,2.86,2.477,4.477,6.263,2.594C409.165,634.9,407.06,631.355,412.579,628.4ZM565.512,89.15l1.063.16v14.142h1.063q.489-3.828.968-7.645h.915l.925,16.864c6.933-8.283,4.87-22.712-6.135-37-1.627,6.592-3.19,12.845-4.7,19.139l1.361.532Zm149.276,44.19c-2.5,2.127-4.785,3.126-5.316,4.678-2.722,8.623-5.008,17.374-7.815,27.444,4.4-2.329,9.314-.245,9.921-6.156C712.437,151.3,713.554,143.314,714.787,133.341ZM616.964,87.555l-1.287-.564c-1.51,2.509-3.126,4.966-4.519,7.549-2.69,5.008-.978,17.289,3.083,20.926,1.329,1.18,3.615,2.552,4.934,2.127s2.584-2.839,2.86-4.54a54.334,54.334,0,0,0,.128-8.6c-1.659,2.616-3.4,5.391-5.146,8.166l-1.957-.872c.234-2.594.479-5.189.712-7.783l-1.244-1c-.564,1.467-1.138,2.935-1.712,4.4l-1.478-.978q2.839-9.4,5.667-18.831Zm31.9,405.688-.638-.053c-1.063,2.2-2.669,4.328-2.988,6.624-.617,4.519-.372,9.144-.7,13.706-.829,11.26-1.829,22.5-2.615,33.759-.1,1.361.648,2.775,1.063,4.168l1.063-.393q2.478-28.9,4.9-57.811ZM478.9,632.652l3.828-5.316-.7-.914-5.55,3.009c-.415-2.5-.819-4.987-1.233-7.443l-1.786.34v17.162l1.265.372,1.978-3.817,5.667,3.977c.3-.383.6-.776.883-1.17Zm-100.151-3.573c6.986,1.34,1.605,8.007,5.051,10.484,4.072-4.934,2.456-11.335-3.052-13.185a4.774,4.774,0,0,1-2.212-2.573,13.5,13.5,0,0,1-.564-3.573l-2.126,2.127c-1.574,8.953-.819,15.662,2.36,17.172.2-3.5.362-6.763.542-10.473Zm44.424,5.019c.489-3.636.659-7.028-3.509-7.252-1.946-.106-5.667,1.723-5.7,2.765-.106,3.19.361,7.092,2.212,9.442,1.393,1.765,5.146,1.2,7.018-2.531l-6.305-.479v-1.329ZM478.694,345.52l.425,1.9,40.4-8.8-.457-2.052ZM369.866,636.352l-5.2.659.053,2.3c2.307,0,4.71.383,6.88-.16,1.116-.287,2.786-2.924,2.509-3.318a49.21,49.21,0,0,0-5.316-5.816l5.146-1.414-.479-1.563c-3-.617-6.858-1.882-7.868,2.073C365.071,630.972,368.218,633.715,369.866,636.352Zm95.813.138c-3-6.933,1.063-7.124,6.284-7.124-2.222-1.552-4.434-2.733-6.55-2.594-3.456.245-3.679,3.19-3.573,5.986s-.245,6.231,3.53,6.646c2.074.223,4.306-1.063,6.476-1.712l-.542-1.978Zm-20.415-13.7c-2.509,2.637-3.53,11.271-1.287,14.471.872,1.244,2.892,1.68,4.391,2.488l1.2-1.159c-4.03-3.817-4.955-7.507-.245-10.378ZM752.811,45.715c3.541-8.964,3.041-12.887-1.308-14.546C751.949,36.145,752.407,40.962,752.811,45.715ZM723.7,101.378c-.553,2.807-.967,4.881-1.361,6.954s-.734,4.083-1.233,6.89C727.759,110.182,727.845,109.725,723.7,101.378ZM561.95,114.4l-8.123,5.316,7.858,3.807a40.264,40.264,0,0,0,.542-4.136C562.237,117.944,562.077,116.541,561.95,114.4ZM759.105,49.277c5.21-2.19,6.964-8.411,4.051-12.249ZM456.227,639.627l-1.648-.085c1.882-.627,4.168-.808,5.5-2.042.893-.819.4-3.126.542-4.764l.478,1.786Zm.2-11.9.074-1.18c-1.776.468-4.072.436-5.146,1.563s-.691,3.349-.946,5.093c-.617-.946-1.223-1.9-1.829-2.86Z" transform="translate(-484.68 1.072)" fill="#4e3a2a"/>
      <path id="Path_33" data-name="Path 33" d="M676.18,167.512c7.156,7.23,14.886,7.071,26.582,7.071,8.57,0,24.753-5.954,26.646-7.1-3.647,10.771-12.611,17.629-23.68,18.012C690.79,186,681.007,180.229,676.18,167.512Z" transform="translate(-463.553 10.602)" fill="#4e3a2a"/>
      <path id="Path_34" data-name="Path 34" d="M724.63,149.84c13.025,4.9,29.655,9.325,52.452.223-5.72,9.442-12.377,16.417-23.392,16.587C741.558,166.842,732.254,161.143,724.63,149.84Z" transform="translate(-460.487 9.486)" fill="#4e3a2a"/>
      <path id="Path_35" data-name="Path 35" d="M587.419,146.985a14.731,14.731,0,0,1-1.446,2.509c-3.073,2.4-7.73,7.443-8.985,6.688a48.977,48.977,0,0,1-12.866-11.8c-2.276-2.85-2.9-7.007-3.562-11.09,3.785,3.5,7.709,6.858,11.3,10.527C575.914,147.974,580.071,151.228,587.419,146.985Z" transform="translate(-470.871 8.438)" fill="#4e3a2a"/>
      <path id="Path_36" data-name="Path 36" d="M567.87,82.246c7.443-5.029,13.61-5.986,19.841,0Z" transform="translate(-470.409 4.946)" fill="#4e3a2a"/>
    </g>
    <text id="THE" transform="translate(45.509 671.865)" font-size="41" font-family="Montserrat-Bold, Montserrat" font-weight="700"><tspan x="0" y="0">THE</tspan></text>
  </g>
</svg>
